<?xml version="1.0" encoding="UTF-8" standalone="no" ?>
<!DOCTYPE svg PUBLIC "-//W3C//DTD SVG 1.1//EN" "http://www.w3.org/Graphics/SVG/1.1/DTD/svg11.dtd">
<svg xmlns="http://www.w3.org/2000/svg" xmlns:xlink="http://www.w3.org/1999/xlink" version="1.1" width="1280" height="1024" viewBox="0 0 1280 1024" xml:space="preserve">
<desc>Created with Fabric.js 5.3.0</desc>
<defs>
</defs>
<g transform="matrix(1 0 0 1 640 512)" id="background-logo"  >
<rect style="stroke: none; stroke-width: 0; stroke-dasharray: none; stroke-linecap: butt; stroke-dashoffset: 0; stroke-linejoin: miter; stroke-miterlimit: 4; fill: rgb(255,255,255); fill-rule: nonzero; opacity: 1;"  paint-order="stroke"  x="-640" y="-512" rx="0" ry="0" width="1280" height="1024" />
</g>
<g transform="matrix(1.9211538461538462 0 0 1.9211538461538462 640 389.69948269811294)" id="logo-logo"  >
<g style=""  paint-order="stroke"   >
		<g transform="matrix(0.680158483776276 0 0 -0.6801584837762763 -81.30215779206318 9.458251124368104)"  >
<path style="stroke: none; stroke-width: 1; stroke-dasharray: none; stroke-linecap: butt; stroke-dashoffset: 0; stroke-linejoin: miter; stroke-miterlimit: 4; fill: rgb(0,0,0); fill-rule: nonzero; opacity: 1;"  paint-order="stroke"  transform=" translate(0, -28.841)" d="M 0 0 C 3.59 0 6.5 2.91 6.5 6.5 L 6.5 51.182 C 6.5 54.771 3.59 57.682 0 57.682 C -3.59 57.682 -6.5 54.771 -6.5 51.182 L -6.5 6.5 C -6.5 2.91 -3.59 0 0 0" stroke-linecap="round" />
</g>
		<g transform="matrix(0.680158483776276 0 0 -0.6801584837762763 -70.40130981994298 104.38646888158158)"  >
<path style="stroke: none; stroke-width: 1; stroke-dasharray: none; stroke-linecap: butt; stroke-dashoffset: 0; stroke-linejoin: miter; stroke-miterlimit: 4; fill: rgb(0,0,0); fill-rule: nonzero; opacity: 1;"  paint-order="stroke"  transform=" translate(15.809704099151453, -6.31041620378263)" d="M 0 0 L -1.936 0 C -13.518 0 -23.514 8.624 -25.187 20.06 C -25.707 23.612 -29.008000000000003 26.073 -32.56 25.551 C -36.112 25.031 -38.57 21.729999999999997 -38.050000000000004 18.179 C -35.45 0.403 -19.924 -13 -1.936 -13 L 0 -13 C 3.59 -13 6.5 -10.09 6.5 -6.5 C 6.5 -2.91 3.59 0 0 0" stroke-linecap="round" />
</g>
		<g transform="matrix(0.680158483776276 0 0 -0.6801584837762763 -71.76391581645805 -36.4161507583045)"  >
<path style="stroke: none; stroke-width: 1; stroke-dasharray: none; stroke-linecap: butt; stroke-dashoffset: 0; stroke-linejoin: miter; stroke-miterlimit: 4; fill: rgb(0,0,0); fill-rule: nonzero; opacity: 1;"  paint-order="stroke"  transform=" translate(-13.74039587737779, -21.463465146749435)" d="M 0 0 C 3.59 0 6.5 2.941 6.5 6.531 C 6.5 18.66 15.953 28.945 28.02 29.948999999999998 C 31.597 30.246 34.256 33.388 33.958 36.964999999999996 C 33.661 40.543 30.511999999999997 43.202999999999996 26.942 42.903999999999996 C 8.189 41.346 -6.5 25.369 -6.5 6.531 L -6.5 6.47 C -6.5 2.88 -3.59 0 0 0" stroke-linecap="round" />
</g>
		<g transform="matrix(0.680158483776276 0 0 -0.6801584837762763 -81.30215779206318 60.32887499426235)"  >
<path style="stroke: none; stroke-width: 1; stroke-dasharray: none; stroke-linecap: butt; stroke-dashoffset: 0; stroke-linejoin: miter; stroke-miterlimit: 4; fill: rgb(0,0,0); fill-rule: nonzero; opacity: 1;"  paint-order="stroke"  transform=" translate(0, -28.8405)" d="M 0 0 C 3.59 0 6.5 2.91 6.5 6.5 L 6.5 51.181 C 6.5 54.771 3.59 57.681 0 57.681 C -3.59 57.681 -6.5 54.771 -6.5 51.181 L -6.5 6.5 C -6.5 2.91 -3.59 0 0 0" stroke-linecap="round" />
</g>
		<g transform="matrix(0.680158483776276 0 0 -0.6801584837762763 -1.3626059965150716 -80.01954264678537)"  >
<path style="stroke: none; stroke-width: 1; stroke-dasharray: none; stroke-linecap: butt; stroke-dashoffset: 0; stroke-linejoin: miter; stroke-miterlimit: 4; fill: rgb(0,0,0); fill-rule: nonzero; opacity: 1;"  paint-order="stroke"  transform=" translate(-59.74850000000001, -55.334)" d="M 0 0 L 44.681 0 C 48.271 0 51.181 2.91 51.181 6.5 C 51.181 10.09 48.271 13 44.681 13 L 14.112 13 C 14.101 13.412 14.085 13.824 14.085 14.239 L 14.085 49.355000000000004 C 14.085 75.787 35.588 97.29 62.02 97.29 C 88.452 97.29 109.956 75.787 109.956 49.355000000000004 L 109.956 14.239 C 109.956 13.824000000000002 109.94 13.412 109.929 13 L 74.815 13 C 71.225 13 68.315 10.09 68.315 6.5 C 68.315 2.91 71.225 0 74.815 0 L 119.497 0 C 123.086 0 125.997 2.91 125.997 6.5 C 125.997 8.68 124.92 10.604 123.274 11.783000000000001 C 123.309 12.598 123.333 13.416 123.333 14.239 L 123.333 49.355000000000004 C 123.333 83.16300000000001 95.828 110.668 62.019999999999996 110.668 C 28.211999999999996 110.668 0.7079999999999984 83.16300000000001 0.7079999999999984 49.355000000000004 L 0.7079999999999984 14.239 C 0.708 13.824 0.72 13.412 0.729 13 L 0 13 C -3.59 13 -6.5 10.09 -6.5 6.5 C -6.5 2.91 -3.59 0 0 0" stroke-linecap="round" />
</g>
		<g transform="matrix(0.680158483776276 0 0 -0.6801584837762763 81.30215779206321 6.733039131338018)"  >
<path style="stroke: none; stroke-width: 1; stroke-dasharray: none; stroke-linecap: butt; stroke-dashoffset: 0; stroke-linejoin: miter; stroke-miterlimit: 4; fill: rgb(0,0,0); fill-rule: nonzero; opacity: 1;"  paint-order="stroke"  transform=" translate(0, 28.84)" d="M 0 0 C -3.59 0 -6.5 -2.91 -6.5 -6.5 L -6.5 -51.18 C -6.5 -54.769999999999996 -3.59 -57.68 0 -57.68 C 3.59 -57.68 6.5 -54.769999999999996 6.5 -51.18 L 6.5 -6.5 C 6.5 -2.91 3.59 0 0 0" stroke-linecap="round" />
</g>
		<g transform="matrix(0.680158483776276 0 0 -0.6801584837762763 27.252119930300466 113.01630685951008)"  >
<path style="stroke: none; stroke-width: 1; stroke-dasharray: none; stroke-linecap: butt; stroke-dashoffset: 0; stroke-linejoin: miter; stroke-miterlimit: 4; fill: rgb(0,0,0); fill-rule: nonzero; opacity: 1;"  paint-order="stroke"  transform=" translate(22.3405, 6.5)" d="M 0 0 L -44.681 0 C -48.271 0 -51.181 -2.91 -51.181 -6.5 C -51.181 -10.09 -48.271 -13 -44.681 -13 L 0 -13 C 3.59 -13 6.5 -10.09 6.5 -6.5 C 6.5 -2.91 3.59 0 0 0" stroke-linecap="round" />
</g>
		<g transform="matrix(0.680158483776276 0 0 -0.6801584837762763 71.76391581645805 103.02386288506656)"  >
<path style="stroke: none; stroke-width: 1; stroke-dasharray: none; stroke-linecap: butt; stroke-dashoffset: 0; stroke-linejoin: miter; stroke-miterlimit: 4; fill: rgb(0,0,0); fill-rule: nonzero; opacity: 1;"  paint-order="stroke"  transform=" translate(13.771296333268452, 21.512)" d="M 0 0 C -3.59 0 -6.5 -2.91 -6.5 -6.5 L -6.5 -6.623 C -6.5 -18.776 -15.974 -29.065 -28.067 -30.046 C -31.646 -30.336 -34.311 -33.472 -34.021 -37.05 C -33.745 -40.449 -30.901 -43.024 -27.549 -43.024 C -27.373 -43.024 -27.195 -43.018 -27.017 -43.003 C -8.223 -41.479 6.5 -25.499 6.5 -6.623 L 6.5 -6.5 C 6.5 -2.91 3.59 0 0 0" stroke-linecap="round" />
</g>
		<g transform="matrix(0.680158483776276 0 0 -0.6801584837762763 81.30215779206321 57.149461002393906)"  >
<path style="stroke: none; stroke-width: 1; stroke-dasharray: none; stroke-linecap: butt; stroke-dashoffset: 0; stroke-linejoin: miter; stroke-miterlimit: 4; fill: rgb(0,0,0); fill-rule: nonzero; opacity: 1;"  paint-order="stroke"  transform=" translate(0, 28.8405)" d="M 0 0 C -3.59 0 -6.5 -2.91 -6.5 -6.5 L -6.5 -51.181 C -6.5 -54.771 -3.59 -57.681 0 -57.681 C 3.59 -57.681 6.5 -54.771 6.5 -51.181 L 6.5 -6.5 C 6.5 -2.91 3.59 0 0 0" stroke-linecap="round" />
</g>
		<g transform="matrix(0.680158483776276 0 0 -0.6801584837762763 -24.072705938432023 113.01630685951008)"  >
<path style="stroke: none; stroke-width: 1; stroke-dasharray: none; stroke-linecap: butt; stroke-dashoffset: 0; stroke-linejoin: miter; stroke-miterlimit: 4; fill: rgb(0,0,0); fill-rule: nonzero; opacity: 1;"  paint-order="stroke"  transform=" translate(22.3405, 6.5)" d="M 0 0 L -44.681 0 C -48.271 0 -51.181 -2.91 -51.181 -6.5 C -51.181 -10.09 -48.271 -13 -44.681 -13 L 0 -13 C 3.59 -13 6.5 -10.09 6.5 -6.5 C 6.5 -2.91 3.59 0 0 0" stroke-linecap="round" />
</g>
		<g transform="matrix(0.680158483776276 0 0 -0.6801584837762763 70.40130981994292 -37.77875675481957)"  >
<path style="stroke: none; stroke-width: 1; stroke-dasharray: none; stroke-linecap: butt; stroke-dashoffset: 0; stroke-linejoin: miter; stroke-miterlimit: 4; fill: rgb(0,0,0); fill-rule: nonzero; opacity: 1;"  paint-order="stroke"  transform=" translate(-15.836027430665911, 6.280000000000001)" d="M 0 0 L 1.998 0 C 13.556999999999999 0 23.549 -8.604 25.241 -20.012 C 25.72 -23.240000000000002 28.494 -25.560000000000002 31.663 -25.560000000000002 C 31.979 -25.560000000000002 32.302 -25.536 32.625 -25.488000000000003 C 36.176 -24.961000000000002 38.627 -21.656000000000002 38.101 -18.105000000000004 C 35.47 -0.372 19.949 13 1.998 13 L 0 13 C -3.59 13 -6.5 10.09 -6.5 6.5 C -6.5 2.91 -3.59 0 0 0" stroke-linecap="round" />
</g>
		<g transform="matrix(0.680158483776276 0 0 -0.6801584837762763 21.801695944240464 -27.786312780375965)"  >
<path style="stroke: none; stroke-width: 1; stroke-dasharray: none; stroke-linecap: butt; stroke-dashoffset: 0; stroke-linejoin: miter; stroke-miterlimit: 4; fill: rgb(0,0,0); fill-rule: nonzero; opacity: 1;"  paint-order="stroke"  transform=" translate(22.5775, -6.5)" d="M 0 0 C 3.59 0 6.5 2.91 6.5 6.5 C 6.5 10.09 3.59 13 0 13 L -45.155 13 C -48.745000000000005 13 -51.655 10.09 -51.655 6.5 C -51.655 2.91 -48.745000000000005 0 -45.155 0 z" stroke-linecap="round" />
</g>
		<g transform="matrix(0.680158483776276 0 0 -0.6801584837762763 50.416421871055945 86.21838892804774)"  >
<path style="stroke: none; stroke-width: 1; stroke-dasharray: none; stroke-linecap: butt; stroke-dashoffset: 0; stroke-linejoin: miter; stroke-miterlimit: 4; fill: rgb(0,0,0); fill-rule: nonzero; opacity: 1;"  paint-order="stroke"  transform=" translate(-22.581, -11.392)" d="M 0 0 C 0 -3.59 2.91 -6.5 6.5 -6.5 L 15.923 -6.5 C 32.046 -6.5 45.162 6.616 45.162 22.738 L 45.162 22.831 C 45.162 26.421 42.251999999999995 29.284 38.662 29.284 C 35.072 29.284 32.162 26.328 32.162 22.738 C 32.162 13.784 24.877 6.5 15.923 6.5 L 6.5 6.5 C 2.91 6.5 0 3.59 0 0" stroke-linecap="round" />
</g>
		<g transform="matrix(0.680158483776276 0 0 -0.6801584837762763 3.633615990706687 93.93982290829965)"  >
<path style="stroke: none; stroke-width: 1; stroke-dasharray: none; stroke-linecap: butt; stroke-dashoffset: 0; stroke-linejoin: miter; stroke-miterlimit: 4; fill: rgb(0,0,0); fill-rule: nonzero; opacity: 1;"  paint-order="stroke"  transform=" translate(-22.5775, -6.5)" d="M 0 0 L 45.155 0 C 48.745000000000005 0 51.655 2.91 51.655 6.5 C 51.655 10.09 48.745000000000005 13 45.155 13 L 0 13 C -3.59 13 -6.5 10.09 -6.5 6.5 C -6.5 2.91 -3.59 0 0 0" stroke-linecap="round" />
</g>
		<g transform="matrix(0.680158483776276 0 0 -0.6801584837762763 61.77147184201448 42.16079504072874)"  >
<path style="stroke: none; stroke-width: 1; stroke-dasharray: none; stroke-linecap: butt; stroke-dashoffset: 0; stroke-linejoin: miter; stroke-miterlimit: 4; fill: rgb(0,0,0); fill-rule: nonzero; opacity: 1;"  paint-order="stroke"  transform=" translate(0, 29.0775)" d="M 0 0 C -3.59 0 -6.5 -2.91 -6.5 -6.5 L -6.5 -51.655 C -6.5 -55.245000000000005 -3.59 -58.155 0 -58.155 C 3.59 -58.155 6.5 -55.245000000000005 6.5 -51.655 L 6.5 -6.5 C 6.5 -2.91 3.59 0 0 0" stroke-linecap="round" />
</g>
		<g transform="matrix(0.680158483776276 0 0 -0.6801584837762763 59.046259848984505 -8.255626830327316)"  >
<path style="stroke: none; stroke-width: 1; stroke-dasharray: none; stroke-linecap: butt; stroke-dashoffset: 0; stroke-linejoin: miter; stroke-miterlimit: 4; fill: rgb(0,0,0); fill-rule: nonzero; opacity: 1;"  paint-order="stroke"  transform=" translate(-2.999546627930557, 5.200046617888582)" d="M 0 0 L 0 -26.812 C 0 -30.402 2.91 -33.313 6.5 -33.313 C 10.09 -33.313 13 -30.402 13 -26.812 L 13 0 C 13 8.041 9.804 15.535 3.9990000000000006 21.104 C 1.4070000000000005 23.588 -2.707 23.503999999999998 -5.190999999999999 20.912 C -7.677 18.322 -7.590999999999999 14.206999999999999 -5.000999999999999 11.722999999999999 C -1.776 8.629 0 4.467 0 0" stroke-linecap="round" />
</g>
		<g transform="matrix(0.680158483776276 0 0 -0.6801584837762763 -29.52312992449231 -27.786312780375965)"  >
<path style="stroke: none; stroke-width: 1; stroke-dasharray: none; stroke-linecap: butt; stroke-dashoffset: 0; stroke-linejoin: miter; stroke-miterlimit: 4; fill: rgb(0,0,0); fill-rule: nonzero; opacity: 1;"  paint-order="stroke"  transform=" translate(-22.5775, -6.5)" d="M 0 0 L 45.155 0 C 48.745000000000005 0 51.655 2.91 51.655 6.5 C 51.655 10.09 48.745000000000005 13 45.155 13 L 0 13 C -3.59 13 -6.5 10.09 -6.5 6.5 C -6.5 2.91 -3.59 0 0 0" stroke-linecap="round" />
</g>
		<g transform="matrix(0.680158483776276 0 0 -0.6801584837762763 -61.771471842014535 49.882229020980475)"  >
<path style="stroke: none; stroke-width: 1; stroke-dasharray: none; stroke-linecap: butt; stroke-dashoffset: 0; stroke-linejoin: miter; stroke-miterlimit: 4; fill: rgb(0,0,0); fill-rule: nonzero; opacity: 1;"  paint-order="stroke"  transform=" translate(0, 29.0775)" d="M 0 0 C -3.59 0 -6.5 -2.91 -6.5 -6.5 L -6.5 -51.655 C -6.5 -55.245000000000005 -3.59 -58.155 0 -58.155 C 3.59 -58.155 6.5 -55.245000000000005 6.5 -51.655 L 6.5 -6.5 C 6.5 -2.91 3.59 0 0 0" stroke-linecap="round" />
</g>
		<g transform="matrix(0.680158483776276 0 0 -0.6801584837762763 -61.317269843176234 -1.442596847752128)"  >
<path style="stroke: none; stroke-width: 1; stroke-dasharray: none; stroke-linecap: butt; stroke-dashoffset: 0; stroke-linejoin: miter; stroke-miterlimit: 4; fill: rgb(0,0,0); fill-rule: nonzero; opacity: 1;"  paint-order="stroke"  transform=" translate(-5.5907443388866, 24.563919799711087)" d="M 0 0 C -0.988 -2.971 -1.488 -6.075 -1.488 -9.229 L -1.488 -47.08 C -1.488 -50.67 1.4220000000000002 -53.58 5.0120000000000005 -53.58 C 8.602 -53.58 11.512 -50.67 11.512 -47.08 L 11.512 -9.229 C 11.512 -7.470999999999999 11.789 -5.745999999999999 12.336 -4.1 C 13.468 -0.6929999999999996 11.625 2.9860000000000007 8.218 4.118 C 4.81 5.252 1.132 3.406 0 0" stroke-linecap="round" />
</g>
		<g transform="matrix(0.680158483776276 0 0 -0.6801584837762763 -45.874401882672544 89.8520049187546)"  >
<path style="stroke: none; stroke-width: 1; stroke-dasharray: none; stroke-linecap: butt; stroke-dashoffset: 0; stroke-linejoin: miter; stroke-miterlimit: 4; fill: rgb(0,0,0); fill-rule: nonzero; opacity: 1;"  paint-order="stroke"  transform=" translate(26.7659723731108, -6.106751624425364)" d="M 0 0 C 0 3.59 -2.91 6.5 -6.5 6.5 L -26.87 6.5 C -32.938 6.5 -38.456 9.844 -41.271 15.226 C -42.936 18.407 -46.864000000000004 19.635 -50.044 17.972 C -53.224999999999994 16.307000000000002 -54.45399999999999 12.379000000000001 -52.79 9.198000000000002 C -47.724 -0.484 -37.792 -6.5 -26.87 -6.5 L -6.5 -6.5 C -2.91 -6.5 0 -3.59 0 0" stroke-linecap="round" />
</g>
		<g transform="matrix(1.1391527995145754 0 0 -1.1391527995145756 -2.202371611033584 33.31948201020387)"  >
<path style="stroke: none; stroke-width: 1; stroke-dasharray: none; stroke-linecap: butt; stroke-dashoffset: 0; stroke-linejoin: miter; stroke-miterlimit: 4; fill: rgb(0,0,0); fill-rule: nonzero; opacity: 1;"  paint-order="stroke"  transform=" translate(-24.2685, 9.962000000000003)" d="M 0 0 C 0 -7.469 3.377 -14.148 8.686 -18.6 L 8.686 -44.194 L 39.852 -44.194 L 39.852 -18.6 C 45.16 -14.148000000000001 48.537 -7.469000000000001 48.537 0 C 48.537 13.403 37.672 24.27 24.269 24.27 C 10.865 24.27 0 13.403 0 0" stroke-linecap="round" />
</g>
</g>
</g>
<g transform="matrix(1.9211538461538462 0 0 1.9211538461538462 640.2766461538462 722.959288101127)" id="text-logo"  >
<g style=""  paint-order="stroke"   >
		<g transform="matrix(1 0 0 1 0 0)" id="text-logo-path-0"  >
<path style="stroke: none; stroke-width: 0; stroke-dasharray: none; stroke-linecap: butt; stroke-dashoffset: 0; stroke-linejoin: miter; stroke-miterlimit: 4; fill: rgb(0,0,0); fill-rule: nonzero; opacity: 1;"  paint-order="stroke"  transform=" translate(-144.36, 25.2)" d="M 10.44 -3.6 L 10.44 -32.83 L 27.36 -1.87 C 27.94 -0.79 29.16 0 30.53 0 L 30.6 0 C 32.62 0 34.2 -1.58 34.2 -3.6 L 34.2 -46.8 C 34.2 -48.82 32.62 -50.4 30.6 -50.4 C 28.58 -50.4 27 -48.82 27 -46.8 L 27 -17.57 L 10.08 -48.53 C 9.5 -49.61 8.28 -50.4 6.91 -50.4 L 6.84 -50.4 C 4.82 -50.4 3.24 -48.82 3.24 -46.8 L 3.24 -3.6 C 3.24 -1.58 4.82 0 6.84 0 C 8.86 0 10.44 -1.58 10.44 -3.6 Z M 68.11 -7.2 L 47.95 -7.2 L 47.95 -21.6 L 60.91 -21.6 C 62.93 -21.6 64.51 -23.18 64.51 -25.2 C 64.51 -27.22 62.93 -28.8 60.91 -28.8 L 47.95 -28.8 L 47.95 -43.2 L 68.11 -43.2 C 70.13 -43.2 71.71 -44.78 71.71 -46.8 C 71.71 -48.82 70.13 -50.4 68.11 -50.4 L 45.07 -50.4 C 42.62 -50.4 40.75 -48.53 40.75 -46.08 L 40.75 -4.32 C 40.75 -1.8 42.62 0 45.07 0 L 68.11 0 C 70.13 0 71.71 -1.58 71.71 -3.6 C 71.71 -5.62 70.13 -7.2 68.11 -7.2 Z M 97.27 -1.94 L 105.7 -33.62 L 114.05 -1.94 C 114.48 -0.36 115.85 0.72 117.5 0.72 L 117.58 0.72 L 117.65 0.72 C 119.3 0.72 120.67 -0.36 121.1 -1.94 L 132.91 -46.58 C 133.49 -48.74 131.9 -51.12 129.46 -51.12 C 127.8 -51.12 126.43 -50.04 126 -48.46 L 117.58 -16.63 L 109.15 -48.46 C 108.72 -50.04 107.35 -51.12 105.7 -51.12 L 105.62 -51.12 C 103.97 -51.12 102.6 -50.04 102.17 -48.46 L 93.74 -16.63 L 85.32 -48.46 C 84.89 -50.04 83.52 -51.12 81.86 -51.12 C 79.42 -51.12 77.83 -48.74 78.41 -46.58 L 90.22 -1.94 C 90.65 -0.36 92.02 0.72 93.67 0.72 L 93.74 0.72 L 93.82 0.72 C 95.47 0.72 96.84 -0.36 97.27 -1.94 Z M 139.61 -14.18 C 139.61 -5.62 145.94 0.72 154.51 0.72 L 156.46 0.72 C 164.74 0.72 171.36 -5.9 171.36 -14.11 C 171.36 -21.53 164.88 -24.91 156.96 -28.58 C 150.98 -31.46 146.81 -33.77 146.81 -37.66 C 146.81 -40.75 149.98 -43.92 154.51 -43.92 L 156.46 -43.92 C 160.7 -43.92 164.16 -40.46 164.16 -36.29 C 164.16 -34.27 165.74 -32.69 167.76 -32.69 C 169.78 -32.69 171.36 -34.27 171.36 -36.29 C 171.36 -44.5 164.74 -51.12 156.46 -51.12 L 154.51 -51.12 C 145.94 -51.12 139.61 -44.78 139.61 -37.66 C 139.61 -29.02 147.67 -25.13 153.94 -22.1 C 159.98 -19.3 164.16 -17.21 164.16 -14.11 C 164.16 -9.94 160.7 -6.48 156.46 -6.48 L 154.51 -6.48 C 149.98 -6.48 146.81 -9.65 146.81 -14.18 C 146.81 -16.2 145.22 -17.78 143.21 -17.78 C 141.19 -17.78 139.61 -16.2 139.61 -14.18 Z M 185.11 -2.88 L 185.11 -21.6 L 201.67 -21.6 L 201.67 -2.88 C 201.67 -0.86 203.26 0.72 205.27 0.72 C 207.29 0.72 208.87 -0.86 208.87 -2.88 L 208.87 -47.52 C 208.87 -49.54 207.29 -51.12 205.27 -51.12 C 203.26 -51.12 201.67 -49.54 201.67 -47.52 L 201.67 -28.8 L 185.11 -28.8 L 185.11 -47.52 C 185.11 -49.54 183.53 -51.12 181.51 -51.12 C 179.5 -51.12 177.91 -49.54 177.91 -47.52 L 177.91 -2.88 C 177.91 -0.86 179.5 0.72 181.51 0.72 C 183.53 0.72 185.11 -0.86 185.11 -2.88 Z M 215.42 -47.52 L 215.42 -14.18 C 215.42 -5.62 221.76 0.72 230.33 0.72 L 232.27 0.72 C 240.55 0.72 247.18 -5.9 247.18 -14.11 L 247.18 -47.52 C 247.18 -49.54 245.59 -51.12 243.58 -51.12 C 241.56 -51.12 239.98 -49.54 239.98 -47.52 L 239.98 -14.11 C 239.98 -9.94 236.52 -6.48 232.27 -6.48 L 230.33 -6.48 C 225.79 -6.48 222.62 -9.65 222.62 -14.18 L 222.62 -47.52 C 222.62 -49.54 221.04 -51.12 219.02 -51.12 C 217.01 -51.12 215.42 -49.54 215.42 -47.52 Z M 253.73 -4.32 C 253.73 -1.8 255.6 0 258.05 0 L 270.58 0 C 278.86 0 285.48 -6.62 285.48 -14.83 C 285.48 -19.8 283.18 -24.12 279.43 -26.86 C 281.81 -29.38 283.25 -32.69 283.25 -36.43 C 283.25 -44.21 277.06 -50.4 269.28 -50.4 L 258.05 -50.4 C 255.6 -50.4 253.73 -48.53 253.73 -46.08 Z M 260.93 -7.2 L 260.93 -22.54 L 269.28 -22.54 C 269.71 -22.54 270.07 -22.54 270.58 -22.61 L 270.58 -22.54 C 274.82 -22.54 278.28 -19.08 278.28 -14.83 C 278.28 -10.66 274.82 -7.2 270.58 -7.2 Z M 260.93 -29.74 L 260.93 -43.2 L 269.28 -43.2 C 273.02 -43.2 276.05 -40.18 276.05 -36.43 C 276.05 -32.76 273.02 -29.74 269.28 -29.74 Z" stroke-linecap="round" />
</g>
</g>
</g>
<g transform="matrix(1.9211538461538462 0 0 1.9211538461538462 640.1229538461539 824.3926896731934)" id="tagline-e7b30986-c65b-44c6-b71c-2a5b147f6617-logo"  >
<g style=""  paint-order="stroke"   >
		<g transform="matrix(1 0 0 1 0 0)" id="tagline-e7b30986-c65b-44c6-b71c-2a5b147f6617-logo-path-0"  >
<path style="stroke: none; stroke-width: 0; stroke-dasharray: none; stroke-linecap: butt; stroke-dashoffset: 0; stroke-linejoin: miter; stroke-miterlimit: 4; fill: rgb(0,0,0); fill-rule: nonzero; opacity: 1;"  paint-order="stroke"  transform=" translate(-161.505, 11.2)" d="M 1.44 -6.3 C 1.44 -2.5 4.26 0.32 8.06 0.32 L 8.93 0.32 C 12.61 0.32 15.55 -2.62 15.55 -6.27 C 15.55 -9.57 12.67 -11.07 9.15 -12.7 C 6.5 -13.98 4.64 -15.01 4.64 -16.74 C 4.64 -18.11 6.05 -19.52 8.06 -19.52 L 8.93 -19.52 C 10.82 -19.52 12.35 -17.98 12.35 -16.13 C 12.35 -15.23 13.06 -14.53 13.95 -14.53 C 14.85 -14.53 15.55 -15.23 15.55 -16.13 C 15.55 -19.78 12.61 -22.72 8.93 -22.72 L 8.06 -22.72 C 4.26 -22.72 1.44 -19.9 1.44 -16.74 C 1.44 -12.9 5.02 -11.17 7.81 -9.82 C 10.5 -8.58 12.35 -7.65 12.35 -6.27 C 12.35 -4.42 10.82 -2.88 8.93 -2.88 L 8.06 -2.88 C 6.05 -2.88 4.64 -4.29 4.64 -6.3 C 4.64 -7.2 3.94 -7.9 3.04 -7.9 C 2.14 -7.9 1.44 -7.2 1.44 -6.3 Z M 44.22 -3.2 L 36.22 -3.2 L 36.22 -21.12 C 36.22 -22.02 35.52 -22.72 34.62 -22.72 C 33.73 -22.72 33.02 -22.02 33.02 -21.12 L 33.02 -1.92 C 33.02 -0.8 33.86 0 34.94 0 L 44.22 0 C 45.12 0 45.82 -0.7 45.82 -1.6 C 45.82 -2.5 45.12 -3.2 44.22 -3.2 Z M 77.41 -6.27 L 77.41 -16.13 C 77.41 -19.78 74.46 -22.72 70.78 -22.72 L 69.92 -22.72 C 66.11 -22.72 63.3 -19.9 63.3 -16.1 L 63.3 -6.3 C 63.3 -2.5 66.11 0.32 69.92 0.32 L 70.78 0.32 C 74.46 0.32 77.41 -2.62 77.41 -6.27 Z M 74.21 -16.13 L 74.21 -6.27 C 74.21 -4.42 72.67 -2.88 70.78 -2.88 L 69.92 -2.88 C 67.9 -2.88 66.5 -4.29 66.5 -6.3 L 66.5 -16.1 C 66.5 -18.11 67.9 -19.52 69.92 -19.52 L 70.78 -19.52 C 72.67 -19.52 74.21 -17.98 74.21 -16.13 Z M 102.37 -7.97 L 105.79 -7.97 L 105.79 -6.27 C 105.79 -4.42 104.26 -2.88 102.37 -2.88 L 101.5 -2.88 C 99.49 -2.88 98.08 -4.29 98.08 -6.3 L 98.08 -16.1 C 98.08 -18.11 99.49 -19.52 101.5 -19.52 L 102.37 -19.52 C 104.26 -19.52 105.79 -17.98 105.79 -16.13 C 105.79 -15.23 106.5 -14.53 107.39 -14.53 C 108.29 -14.53 108.99 -15.23 108.99 -16.13 C 108.99 -19.78 106.05 -22.72 102.37 -22.72 L 101.5 -22.72 C 97.7 -22.72 94.88 -19.9 94.88 -16.1 L 94.88 -6.3 C 94.88 -2.5 97.7 0.32 101.5 0.32 L 102.37 0.32 C 106.05 0.32 108.99 -2.62 108.99 -6.27 L 108.99 -9.25 C 108.99 -10.34 108.16 -11.17 107.07 -11.17 L 102.37 -11.17 C 101.47 -11.17 100.77 -10.46 100.77 -9.57 C 100.77 -8.67 101.47 -7.97 102.37 -7.97 Z M 128.32 -0.8 L 129.57 -4.8 L 136.48 -4.8 L 137.73 -0.8 C 137.92 -0.19 138.56 0.32 139.26 0.32 C 140.16 0.32 140.86 -0.38 140.86 -1.28 C 140.86 -1.44 140.83 -1.63 140.8 -1.76 L 134.59 -21.6 C 134.4 -22.21 133.76 -22.72 133.06 -22.72 L 133.02 -22.72 L 132.99 -22.72 C 132.29 -22.72 131.65 -22.21 131.46 -21.6 L 125.25 -1.76 C 125.22 -1.63 125.18 -1.44 125.18 -1.28 C 125.18 -0.38 125.89 0.32 126.78 0.32 C 127.49 0.32 128.13 -0.19 128.32 -0.8 Z M 130.56 -8 L 133.02 -15.84 L 135.49 -8 Z M 161.54 -1.6 L 161.54 -14.59 L 169.06 -0.83 C 169.31 -0.35 169.86 0 170.46 0 L 170.5 0 C 171.39 0 172.1 -0.7 172.1 -1.6 L 172.1 -20.8 C 172.1 -21.7 171.39 -22.4 170.5 -22.4 C 169.6 -22.4 168.9 -21.7 168.9 -20.8 L 168.9 -7.81 L 161.38 -21.57 C 161.12 -22.05 160.58 -22.4 159.97 -22.4 L 159.94 -22.4 C 159.04 -22.4 158.34 -21.7 158.34 -20.8 L 158.34 -1.6 C 158.34 -0.7 159.04 0 159.94 0 C 160.83 0 161.54 -0.7 161.54 -1.6 Z M 216.96 -1.28 L 216.96 -9.6 L 224.32 -9.6 L 224.32 -1.28 C 224.32 -0.38 225.02 0.32 225.92 0.32 C 226.82 0.32 227.52 -0.38 227.52 -1.28 L 227.52 -21.12 C 227.52 -22.02 226.82 -22.72 225.92 -22.72 C 225.02 -22.72 224.32 -22.02 224.32 -21.12 L 224.32 -12.8 L 216.96 -12.8 L 216.96 -21.12 C 216.96 -22.02 216.26 -22.72 215.36 -22.72 C 214.46 -22.72 213.76 -22.02 213.76 -21.12 L 213.76 -1.28 C 213.76 -0.38 214.46 0.32 215.36 0.32 C 216.26 0.32 216.96 -0.38 216.96 -1.28 Z M 257.15 -3.2 L 248.19 -3.2 L 248.19 -9.6 L 253.95 -9.6 C 254.85 -9.6 255.55 -10.3 255.55 -11.2 C 255.55 -12.1 254.85 -12.8 253.95 -12.8 L 248.19 -12.8 L 248.19 -19.2 L 257.15 -19.2 C 258.05 -19.2 258.75 -19.9 258.75 -20.8 C 258.75 -21.7 258.05 -22.4 257.15 -22.4 L 246.91 -22.4 C 245.82 -22.4 244.99 -21.57 244.99 -20.48 L 244.99 -1.92 C 244.99 -0.8 245.82 0 246.91 0 L 257.15 0 C 258.05 0 258.75 -0.7 258.75 -1.6 C 258.75 -2.5 258.05 -3.2 257.15 -3.2 Z M 276.22 -1.28 C 276.22 -0.38 276.93 0.32 277.82 0.32 C 278.72 0.32 279.42 -0.38 279.42 -1.28 L 279.42 -9.18 L 281.89 -9.18 L 287.39 -0.42 C 287.65 0 288.16 0.32 288.74 0.32 C 289.63 0.32 290.34 -0.38 290.34 -1.28 C 290.34 -1.6 290.24 -1.89 290.08 -2.14 L 285.5 -9.44 C 288.29 -10.21 290.34 -12.77 290.34 -15.81 C 290.34 -19.46 287.39 -22.4 283.71 -22.4 L 278.14 -22.4 C 277.06 -22.4 276.22 -21.57 276.22 -20.48 Z M 279.42 -12.38 L 279.42 -19.2 L 283.71 -19.2 C 285.6 -19.2 287.14 -17.66 287.14 -15.81 C 287.14 -13.92 285.6 -12.38 283.71 -12.38 Z M 319.97 -3.2 L 311.01 -3.2 L 311.01 -9.6 L 316.77 -9.6 C 317.66 -9.6 318.37 -10.3 318.37 -11.2 C 318.37 -12.1 317.66 -12.8 316.77 -12.8 L 311.01 -12.8 L 311.01 -19.2 L 319.97 -19.2 C 320.86 -19.2 321.57 -19.9 321.57 -20.8 C 321.57 -21.7 320.86 -22.4 319.97 -22.4 L 309.73 -22.4 C 308.64 -22.4 307.81 -21.57 307.81 -20.48 L 307.81 -1.92 C 307.81 -0.8 308.64 0 309.73 0 L 319.97 0 C 320.86 0 321.57 -0.7 321.57 -1.6 C 321.57 -2.5 320.86 -3.2 319.97 -3.2 Z" stroke-linecap="round" />
</g>
</g>
</g>
</svg>